<?xml version="1.0" standalone="no"?>
<!DOCTYPE svg PUBLIC "-//W3C//DTD SVG 20010904//EN"
 "http://www.w3.org/TR/2001/REC-SVG-20010904/DTD/svg10.dtd">
<svg version="1.0" xmlns="http://www.w3.org/2000/svg"
 width="500.000000pt" height="500.000000pt" viewBox="0 0 500.000000 500.000000"
 preserveAspectRatio="xMidYMid meet">
<metadata>
Created by potrace 1.11, written by Peter Selinger 2001-2013
</metadata>
<g transform="translate(0.000000,500.000000) scale(0.100000,-0.100000)"
fill="#000000" stroke="none">
<path d="M850 2588 l0 -1728 259 0 c195 0 263 -3 273 -13 196 -187 497 -342
762 -392 142 -27 178 -30 361 -29 247 1 400 29 610 113 144 58 322 168 437
270 l56 51 276 0 276 0 0 1725 c0 949 -2 1725 -4 1725 -2 0 -38 -48 -81 -107
-43 -60 -90 -124 -104 -143 -14 -19 -33 -44 -41 -56 -18 -26 -221 -304 -233
-319 -4 -5 -30 -41 -58 -80 -27 -38 -55 -77 -62 -85 -7 -8 -32 -43 -56 -77
-24 -35 -47 -63 -52 -63 -4 0 -43 24 -86 54 -195 134 -451 228 -688 254 -81 9
-345 8 -425 -1 -73 -9 -221 -41 -290 -64 -70 -22 -210 -84 -263 -115 -26 -15
-50 -28 -54 -28 -3 0 -34 -21 -70 -46 -35 -25 -66 -44 -67 -42 -1 1 -50 68
-108 148 -88 122 -381 526 -492 678 -17 23 -41 55 -53 70 l-23 27 0 -1727z
m1777 447 c133 -16 338 -98 427 -170 l29 -23 -71 -99 c-39 -54 -75 -102 -79
-108 -10 -11 -178 -242 -208 -285 -18 -26 -175 -240 -207 -283 -13 -17 -17
-15 -51 35 -20 29 -54 76 -74 104 -297 404 -465 636 -469 647 -6 16 69 66 160
107 76 35 187 66 266 75 30 4 56 8 57 9 4 4 168 -2 220 -9z m-898 -1050 c99
-137 212 -293 250 -345 111 -151 372 -513 389 -539 15 -22 15 -23 -3 -18 -11
3 -40 9 -63 12 -248 35 -518 226 -664 470 -94 157 -108 217 -108 475 0 126 4
210 9 205 5 -6 90 -122 190 -260z m1737 50 c-4 -170 -21 -253 -80 -379 -91
-198 -271 -382 -471 -484 -52 -26 -179 -68 -233 -77 l-44 -7 17 28 c8 16 28
45 43 65 48 64 177 240 192 263 8 12 56 77 105 145 50 67 97 132 105 144 20
30 237 330 247 342 5 6 30 41 57 79 62 88 66 81 62 -119z"/>
</g>
</svg>
