<?xml version="1.0" standalone="no"?>
<!DOCTYPE svg PUBLIC "-//W3C//DTD SVG 20010904//EN"
 "http://www.w3.org/TR/2001/REC-SVG-20010904/DTD/svg10.dtd">
<svg version="1.0" xmlns="http://www.w3.org/2000/svg"
 width="680.000000pt" height="680.000000pt" viewBox="0 0 680.000000 680.000000"
 preserveAspectRatio="xMidYMid meet">
<metadata>
Created by potrace 1.11, written by Peter Selinger 2001-2013
</metadata>
<g transform="translate(0.000000,680.000000) scale(0.100000,-0.100000)"
fill="#000000" stroke="none">
<path d="M3205 4892 c-32 -20 -129 -117 -190 -192 -41 -50 -135 -185 -136
-197 -1 -5 -9 -19 -19 -33 -16 -23 -80 -152 -86 -175 -1 -5 -14 -41 -29 -80
-15 -38 -29 -77 -31 -85 -2 -8 -13 -46 -24 -85 -11 -38 -22 -81 -25 -94 -2
-14 -9 -47 -14 -75 -18 -87 -21 -109 -27 -176 -3 -36 -7 -83 -9 -105 -5 -53
-5 -349 -1 -400 7 -78 18 -180 22 -200 2 -11 6 -33 9 -50 14 -84 30 -155 43
-186 6 -15 8 -30 5 -33 -3 -3 -1 -11 5 -19 6 -7 13 -24 15 -37 2 -14 7 -32 10
-40 3 -8 17 -44 30 -80 27 -71 92 -209 133 -280 63 -109 205 -279 295 -352 75
-61 110 -42 47 24 -209 218 -358 513 -427 845 -26 125 -31 159 -36 208 -2 22
-6 60 -10 85 -4 25 -8 85 -10 133 -1 48 -5 90 -8 93 -3 3 -2 17 3 30 6 15 6
26 -1 30 -6 4 -5 11 3 21 13 17 13 20 -4 41 -6 6 -7 12 -2 12 5 0 9 39 10 88
1 73 6 148 18 257 25 221 95 471 185 657 50 104 126 230 142 236 5 2 9 9 9 16
0 11 13 27 111 134 67 74 64 107 -6 64z"/>
<path d="M6145 4899 c-6 -9 10 -33 55 -80 40 -41 142 -175 160 -210 7 -13 16
-26 20 -29 15 -10 130 -257 154 -331 25 -74 70 -247 80 -303 3 -16 8 -50 12
-75 4 -25 8 -54 10 -63 3 -21 15 -130 20 -194 9 -128 4 -428 -11 -549 -3 -22
-7 -62 -11 -90 -4 -42 -39 -228 -48 -260 -2 -5 -6 -27 -11 -47 -4 -21 -11 -38
-17 -38 -5 0 -7 -4 -3 -10 15 -24 -119 -327 -199 -450 -49 -76 -124 -169 -187
-234 -33 -34 -35 -44 -14 -52 38 -15 199 149 319 325 90 132 219 421 240 541
2 14 5 25 6 25 2 0 9 30 14 60 2 11 6 27 9 35 3 8 9 33 12 55 4 22 9 49 11 60
31 179 36 590 10 745 -3 14 -7 43 -10 65 -7 47 -13 84 -27 145 -15 66 -17 72
-28 108 -5 17 -7 32 -4 32 3 0 1 6 -5 13 -6 7 -13 24 -16 39 -2 14 -9 36 -16
47 -6 12 -8 21 -4 21 3 0 2 6 -3 13 -6 6 -20 39 -32 72 -26 69 -111 238 -123
243 -4 2 -8 8 -8 14 0 33 -212 281 -291 341 -39 29 -54 33 -64 16z"/>
<path d="M1637 4774 c-1 -1 -28 -4 -60 -8 -94 -10 -297 -86 -319 -120 -4 -6
-8 -8 -8 -3 0 8 -119 -73 -164 -113 -24 -21 -56 -53 -111 -114 -38 -42 -145
-190 -145 -202 0 -3 -9 -19 -21 -35 -11 -16 -17 -29 -12 -29 4 0 3 -4 -3 -8
-21 -15 -75 -148 -68 -167 8 -19 74 -12 118 13 81 44 113 80 161 179 26 54 51
100 56 101 5 2 9 8 9 13 0 8 59 109 69 119 4 3 23 27 45 53 43 54 97 107 109
107 4 0 19 8 34 17 63 42 215 35 326 -15 60 -27 163 -129 200 -199 15 -29 24
-53 21 -53 -4 0 -2 -6 3 -12 12 -14 33 -77 38 -111 2 -12 7 -38 11 -57 8 -44
9 -248 1 -320 -6 -51 -9 -69 -22 -127 -3 -13 -7 -31 -9 -41 -8 -34 -34 -117
-47 -147 -7 -16 -11 -36 -10 -42 1 -7 -3 -13 -9 -13 -6 0 -9 -3 -7 -7 3 -5
-15 -44 -39 -88 -24 -44 -49 -91 -56 -105 -7 -14 -15 -27 -18 -30 -3 -3 -31
-40 -63 -82 -124 -163 -297 -290 -477 -347 -132 -43 -320 -47 -416 -11 -16 6
-30 11 -31 11 -10 -2 -91 35 -141 63 -32 18 -111 94 -148 141 -27 34 -87 139
-89 155 0 3 -8 25 -17 50 -17 46 -29 90 -34 125 -14 86 -17 120 -17 195 0 87
15 255 23 255 1 0 4 12 6 28 10 59 67 216 110 301 59 118 135 224 226 316 92
95 137 131 270 219 105 69 146 110 133 131 -17 27 -100 -1 -237 -81 -40 -23
-75 -45 -78 -49 -3 -3 -21 -17 -40 -30 -19 -13 -37 -27 -40 -30 -3 -3 -27 -23
-55 -45 -88 -71 -275 -264 -275 -285 0 -4 -4 -10 -9 -12 -17 -6 -167 -251
-176 -288 -1 -3 -8 -18 -15 -35 -7 -16 -15 -39 -17 -50 -2 -10 -7 -22 -12 -25
-4 -3 -9 -12 -9 -20 -1 -8 -13 -56 -26 -106 -37 -139 -49 -296 -34 -441 8 -76
44 -230 57 -248 4 -5 14 -26 21 -45 19 -49 102 -169 141 -206 87 -79 217 -154
269 -154 11 0 20 -4 20 -8 0 -5 10 -8 22 -7 13 1 27 0 33 -3 22 -13 235 -22
235 -10 0 4 9 5 19 3 28 -5 186 29 278 61 123 41 398 187 423 223 3 4 12 12
21 17 65 36 223 189 312 301 66 82 149 215 186 295 36 80 70 168 64 168 -3 0
0 7 7 15 6 8 9 19 5 25 -3 5 -1 10 6 10 7 0 10 3 6 6 -3 3 -2 16 3 28 4 13 11
38 14 57 3 19 8 45 11 59 26 126 25 362 -4 482 -5 20 -6 39 -3 42 3 4 1 6 -4
6 -5 0 -10 9 -11 19 -2 26 -73 171 -84 171 -5 0 -9 6 -9 13 0 34 -144 138
-225 163 -58 18 -188 36 -198 28z"/>
<path d="M4589 3986 c-3 -3 -36 -6 -75 -7 -151 -4 -301 -85 -400 -215 -31 -40
-44 -43 -44 -10 0 33 -27 94 -60 136 -55 70 -174 106 -266 81 -55 -15 -118
-78 -153 -155 -32 -69 -71 -184 -74 -215 -1 -12 -6 -21 -11 -21 -5 0 -7 -3 -4
-6 4 -3 2 -19 -2 -35 -7 -24 -5 -32 13 -44 20 -14 23 -14 38 4 8 10 26 59 39
107 39 152 85 249 137 288 35 26 93 30 126 8 16 -11 28 -22 28 -26 -1 -3 -1
-7 0 -8 11 -38 13 -108 4 -158 -13 -73 -66 -299 -96 -410 -17 -63 -33 -126
-35 -139 -3 -13 -12 -51 -20 -85 -9 -34 -17 -70 -19 -81 -2 -11 -4 -22 -6 -25
-1 -3 -3 -9 -4 -15 -2 -5 -4 -12 -5 -15 -2 -6 -8 -29 -14 -55 -2 -11 -5 -20
-6 -20 -2 0 -9 -32 -14 -65 -2 -14 -7 -33 -11 -44 -5 -10 -9 -39 -9 -63 -1
-36 4 -49 23 -64 27 -22 68 -24 106 -7 27 12 70 80 58 92 -4 3 -2 6 3 6 5 0
10 8 10 18 1 17 3 26 25 112 6 25 12 52 14 60 2 8 4 17 6 20 1 3 3 10 4 15 2
6 4 12 5 15 1 3 3 15 6 28 9 48 126 509 140 555 9 26 20 47 25 47 5 0 9 5 9
11 0 33 180 239 209 239 6 0 11 4 11 9 0 13 126 64 139 57 6 -4 11 -3 11 2 0
17 134 8 163 -11 26 -17 53 -59 64 -100 15 -53 6 -195 -16 -264 -5 -18 -7 -33
-4 -33 3 0 0 -6 -6 -13 -6 -8 -8 -17 -4 -20 3 -4 1 -13 -5 -20 -7 -8 -10 -16
-7 -19 3 -2 0 -20 -6 -39 -5 -19 -12 -45 -15 -59 -3 -14 -10 -43 -15 -65 -5
-22 -12 -50 -14 -62 -3 -12 -23 -91 -45 -175 -21 -84 -42 -168 -45 -187 -3
-19 -8 -37 -10 -41 -6 -9 -15 -59 -20 -106 -3 -34 0 -45 21 -63 23 -20 42 -24
87 -19 35 3 74 68 93 153 1 6 21 86 44 179 23 93 44 176 45 185 2 9 4 16 5 16
1 0 3 7 5 15 2 8 11 44 20 80 21 87 24 100 30 134 3 16 10 37 16 47 5 10 8 22
7 26 -7 33 70 194 126 261 116 140 248 212 382 208 93 -3 153 -57 157 -142 1
-19 5 -34 9 -34 4 0 6 -6 3 -12 -2 -7 -6 -40 -9 -73 -6 -71 -9 -82 -37 -189
-11 -45 -22 -85 -23 -91 -3 -16 -87 -267 -99 -295 -6 -14 -11 -27 -12 -30 -1
-3 -4 -12 -8 -20 -46 -119 -52 -199 -21 -276 41 -101 124 -151 239 -142 90 8
146 42 230 143 30 36 103 181 103 205 0 3 7 22 16 44 19 47 20 80 3 95 -16 12
-49 -6 -53 -30 -1 -8 -12 -41 -24 -74 -12 -33 -26 -75 -32 -92 -6 -18 -15 -33
-20 -33 -4 0 -8 -9 -8 -20 0 -11 -4 -20 -8 -20 -4 0 -16 -15 -27 -32 -41 -71
-106 -117 -174 -123 -78 -8 -99 23 -92 130 2 34 39 170 52 194 9 18 88 238 94
261 3 14 62 218 72 250 5 15 13 85 17 150 7 119 -62 239 -166 288 -37 17 -157
40 -179 34 -4 0 -29 -4 -55 -6 -92 -10 -176 -45 -254 -107 -68 -53 -77 -62
-125 -122 -37 -47 -49 -51 -51 -19 -2 50 -39 127 -80 169 -27 27 -99 64 -138
70 -17 3 -36 9 -42 14 -6 5 -13 7 -15 5z"/>
</g>
</svg>
